<?xml version="1.0" encoding="utf-8"?>
<!-- Generator: Adobe Illustrator 16.0.4, SVG Export Plug-In . SVG Version: 6.00 Build 0)  -->
<!DOCTYPE svg PUBLIC "-//W3C//DTD SVG 1.1//EN" "http://www.w3.org/Graphics/SVG/1.1/DTD/svg11.dtd">
<svg version="1.1" id="Lager_1" xmlns="http://www.w3.org/2000/svg" xmlns:xlink="http://www.w3.org/1999/xlink" x="0px" y="0px"
	 width="1000px" height="413.584px" viewBox="0 0 1000 413.584" enable-background="new 0 0 1000 413.584" xml:space="preserve">
<g>
	<path fill="#802081" d="M590.447,34.923c-22.02-0.897-41.688-10.89-55.355-26.327c-13.781,22.32-38.457,37.201-66.615,37.201
		c-19.697,0-37.68-7.294-51.433-19.307c-13.754,12.013-31.737,19.307-51.433,19.307c-26.853,0-50.526-13.539-64.617-34.15
		c-0.593-0.661-1.175-1.332-1.747-2.013c-7.572,2.443-15.638,3.785-24.023,3.785c-8.384,0-16.454-1.333-24.027-3.774
		c-10.693,30.478-39.703,52.34-73.835,52.34c-14.616,0-28.292-4.011-39.995-10.989c-16.33-5.882-30.243-16.809-39.87-30.905
		c-6.562,1.791-13.456,2.772-20.584,2.772c-7.026,0-13.83-0.941-20.308-2.677c0.921,4.8,1.42,9.75,1.42,14.819
		c0,25.677-12.369,48.464-31.472,62.73c19.103,14.267,31.472,37.055,31.472,62.731c0,29.571-16.406,55.302-40.61,68.606
		c17.769,14.346,29.143,36.29,29.143,60.903c0,12.189-2.788,23.725-7.759,34.009c14.758,8.836,26.348,22.399,32.704,38.595
		c7.733-6.104,16.58-10.854,26.206-13.862c11.383-6.466,24.536-10.174,38.562-10.174c31.23,0,58.167,18.307,70.714,44.767
		c4.647-5.09,9.931-9.59,15.721-13.376c13.883-12.586,32.302-20.258,52.518-20.258c31.896,0,59.316,19.098,71.5,46.471
		c12.184-27.373,39.604-46.471,71.5-46.471c30.317,0,56.587,17.256,69.579,42.468c12.992-25.212,39.261-42.468,69.579-42.468
		c4.857,0,9.605,0.466,14.219,1.314c7.852-34.92,39.027-61.015,76.32-61.015c12.955,0,25.168,3.155,35.926,8.73
		c20.541,7.106,37.369,22.162,46.803,41.495c5.17-1.081,10.523-1.658,16.016-1.658c14.275,0,27.643,3.843,39.162,10.524
		c3.777,1.239,7.434,2.739,10.945,4.49c13.299-24.219,39.025-40.648,68.609-40.648c10.686,0,20.861,2.163,30.137,6.044
		c10.504,1.417,20.373,4.823,29.219,9.837c3.896-2.956,8.074-5.561,12.494-7.753c-1.971-6.869-3.049-14.115-3.049-21.616
		c0-20.725,8.072-39.554,21.225-53.552c-5.012-10.317-7.826-21.898-7.826-34.139c0-11.011,2.285-21.483,6.391-30.989
		c-23.135-13.592-38.674-38.721-38.674-67.493c0-37.277,26.076-68.446,60.979-76.311c-7.322-3.823-13.965-8.762-19.697-14.607
		c-2.953,0.339-5.953,0.532-8.998,0.532c-7.199,0-14.162-0.994-20.783-2.815c-9.943,8.253-21.863,14.191-34.953,17.001
		c-10.756,5.574-22.955,8.749-35.906,8.749c-26.734,0-50.326-13.417-64.439-33.874c-11.684,6.941-25.32,10.939-39.898,10.939
		c-2.904,0-5.766-0.178-8.584-0.491c-8.482,18.371-23.566,33.064-42.221,41.025c-12.086,7.649-26.412,12.079-41.775,12.079
		C629.475,75.477,603.76,59.095,590.447,34.923z"/>
	<path fill="#802081" d="M469.477,38.897c-20.595,0-39.398-7.626-53.78-20.187c-14.382,12.561-33.185,20.187-53.779,20.187
		c-24.212,0-45.949-10.532-60.924-27.25c14.091,20.611,37.764,34.15,64.617,34.15c19.696,0,37.679-7.294,51.433-19.307
		c13.753,12.013,31.736,19.307,51.433,19.307c28.158,0,52.833-14.881,66.615-37.201c13.668,15.437,33.336,25.43,55.355,26.327
		c13.312,24.172,39.027,40.554,68.574,40.554c15.363,0,29.689-4.43,41.775-12.079c-9.852,4.205-20.693,6.534-32.082,6.534
		c-30.895,0-57.781-17.129-71.703-42.404C573.986,26.59,553.424,16.141,539.131,0C524.721,23.338,498.921,38.897,469.477,38.897z"/>
	<path opacity="0.5" fill="#FFFFFF" d="M469.477,38.897c-20.595,0-39.398-7.626-53.78-20.187
		c-14.382,12.561-33.185,20.187-53.779,20.187c-24.212,0-45.949-10.532-60.924-27.25c14.091,20.611,37.764,34.15,64.617,34.15
		c19.696,0,37.679-7.294,51.433-19.307c13.753,12.013,31.736,19.307,51.433,19.307c28.158,0,52.833-14.881,66.615-37.201
		c13.668,15.437,33.336,25.43,55.355,26.327c13.312,24.172,39.027,40.554,68.574,40.554c15.363,0,29.689-4.43,41.775-12.079
		c-9.852,4.205-20.693,6.534-32.082,6.534c-30.895,0-57.781-17.129-71.703-42.404C573.986,26.59,553.424,16.141,539.131,0
		C524.721,23.338,498.921,38.897,469.477,38.897z"/>
	<path fill="#802081" d="M136.271,338.544c-14.027,0-27.18,3.708-38.562,10.174c7.709-2.407,15.903-3.716,24.405-3.716
		c34.116,0,63.343,20.887,75.622,50.567c2.7-4.378,5.8-8.48,9.25-12.259C194.438,356.851,167.501,338.544,136.271,338.544z"/>
	<path opacity="0.5" fill="#FFFFFF" d="M136.271,338.544c-14.027,0-27.18,3.708-38.562,10.174
		c7.709-2.407,15.903-3.716,24.405-3.716c34.116,0,63.343,20.887,75.622,50.567c2.7-4.378,5.8-8.48,9.25-12.259
		C194.438,356.851,167.501,338.544,136.271,338.544z"/>
	<path fill="#802081" d="M416.932,356.645c31.7,0,59.17,18.04,72.753,44.404c13.584-26.364,41.053-44.404,72.754-44.404
		c5.08,0,10.043,0.485,14.869,1.372c8.209-36.513,40.807-63.797,79.799-63.797c9.367,0,18.361,1.587,26.74,4.487
		c-10.758-5.575-22.971-8.73-35.926-8.73c-37.293,0-68.469,26.095-76.32,61.015c-4.613-0.849-9.361-1.314-14.219-1.314
		c-30.318,0-56.587,17.256-69.579,42.468c-12.992-25.212-39.262-42.468-69.579-42.468c-31.896,0-59.316,19.098-71.5,46.471
		c-12.184-27.373-39.604-46.471-71.5-46.471c-20.216,0-38.635,7.672-52.518,20.258c12.848-8.402,28.202-13.29,44.7-13.29
		c33.352,0,62.022,19.966,74.763,48.589C354.91,376.61,383.58,356.645,416.932,356.645z"/>
	<path opacity="0.5" fill="#FFFFFF" d="M416.932,356.645c31.7,0,59.17,18.04,72.753,44.404
		c13.584-26.364,41.053-44.404,72.754-44.404c5.08,0,10.043,0.485,14.869,1.372c8.209-36.513,40.807-63.797,79.799-63.797
		c9.367,0,18.361,1.587,26.74,4.487c-10.758-5.575-22.971-8.73-35.926-8.73c-37.293,0-68.469,26.095-76.32,61.015
		c-4.613-0.849-9.361-1.314-14.219-1.314c-30.318,0-56.587,17.256-69.579,42.468c-12.992-25.212-39.262-42.468-69.579-42.468
		c-31.896,0-59.316,19.098-71.5,46.471c-12.184-27.373-39.604-46.471-71.5-46.471c-20.216,0-38.635,7.672-52.518,20.258
		c12.848-8.402,28.202-13.29,44.7-13.29c33.352,0,62.022,19.966,74.763,48.589C354.91,376.61,383.58,356.645,416.932,356.645z"/>
	<path fill="#802081" d="M28.308,294.22c0,12.743-2.916,24.807-8.114,35.56c17.608,10.542,30.905,27.519,36.678,47.678
		c4.218-5.565,9.152-10.552,14.632-14.877c-6.356-16.195-17.946-29.759-32.704-38.595c4.971-10.284,7.759-21.819,7.759-34.009
		c0-24.613-11.374-46.558-29.143-60.903c24.204-13.305,40.61-39.036,40.61-68.606c0-25.677-12.369-48.465-31.472-62.731
		c19.103-14.266,31.472-37.054,31.472-62.73c0-5.069-0.5-10.019-1.42-14.819c6.478,1.736,13.281,2.677,20.308,2.677
		c7.129,0,14.023-0.981,20.584-2.772c-2.435-3.565-4.605-7.325-6.461-11.265c-9.56,3.917-20.019,6.092-30.989,6.092
		c-7.346,0-14.46-0.984-21.234-2.799c0.963,5.019,1.485,10.195,1.485,15.495c0,26.849-12.934,50.676-32.909,65.594
		c19.975,14.917,32.909,38.745,32.909,65.593c0,29.842-15.984,55.94-39.85,70.231v3.734
		C17.514,247.759,28.308,269.717,28.308,294.22z"/>
	<path opacity="0.5" fill="#FFFFFF" d="M28.308,294.22c0,12.743-2.916,24.807-8.114,35.56
		c17.608,10.542,30.905,27.519,36.678,47.678c4.218-5.565,9.152-10.552,14.632-14.877c-6.356-16.195-17.946-29.759-32.704-38.595
		c4.971-10.284,7.759-21.819,7.759-34.009c0-24.613-11.374-46.558-29.143-60.903c24.204-13.305,40.61-39.036,40.61-68.606
		c0-25.677-12.369-48.465-31.472-62.731c19.103-14.266,31.472-37.054,31.472-62.73c0-5.069-0.5-10.019-1.42-14.819
		c6.478,1.736,13.281,2.677,20.308,2.677c7.129,0,14.023-0.981,20.584-2.772c-2.435-3.565-4.605-7.325-6.461-11.265
		c-9.56,3.917-20.019,6.092-30.989,6.092c-7.346,0-14.46-0.984-21.234-2.799c0.963,5.019,1.485,10.195,1.485,15.495
		c0,26.849-12.934,50.676-32.909,65.594c19.975,14.917,32.909,38.745,32.909,65.593c0,29.842-15.984,55.94-39.85,70.231v3.734
		C17.514,247.759,28.308,269.717,28.308,294.22z"/>
	<path fill="#802081" d="M970.441,14.917c-11.395,0-22.242-2.335-32.1-6.544c-3.443,4.271-7.322,8.171-11.543,11.674
		c6.621,1.822,13.584,2.815,20.783,2.815c3.045,0,6.045-0.192,8.998-0.532c5.732,5.845,12.375,10.784,19.697,14.607
		c-34.902,7.865-60.979,39.034-60.979,76.311c0,28.772,15.539,53.9,38.674,67.493c-4.105,9.506-6.391,19.979-6.391,30.989
		c0,12.24,2.814,23.821,7.826,34.139c-13.152,13.998-21.225,32.827-21.225,53.552c0,7.501,1.078,14.747,3.049,21.616
		c-4.42,2.192-8.598,4.797-12.494,7.753c5.598,3.176,10.793,6.98,15.473,11.337c5.76-5.36,12.289-9.898,19.41-13.432
		c-2.061-7.182-3.188-14.759-3.188-22.603c0-21.67,8.439-41.356,22.191-55.994c-5.24-10.789-8.184-22.898-8.184-35.695
		c0-11.514,2.389-22.465,6.682-32.403c-24.189-14.213-40.438-40.488-40.438-70.572c0-38.98,27.266-71.57,63.762-79.793
		c-7.658-3.998-14.604-9.163-20.598-15.274C976.762,14.716,973.625,14.917,970.441,14.917z"/>
	<path opacity="0.5" fill="#FFFFFF" d="M970.441,14.917c-11.395,0-22.242-2.335-32.1-6.544c-3.443,4.271-7.322,8.171-11.543,11.674
		c6.621,1.822,13.584,2.815,20.783,2.815c3.045,0,6.045-0.192,8.998-0.532c5.732,5.845,12.375,10.784,19.697,14.607
		c-34.902,7.865-60.979,39.034-60.979,76.311c0,28.772,15.539,53.9,38.674,67.493c-4.105,9.506-6.391,19.979-6.391,30.989
		c0,12.24,2.814,23.821,7.826,34.139c-13.152,13.998-21.225,32.827-21.225,53.552c0,7.501,1.078,14.747,3.049,21.616
		c-4.42,2.192-8.598,4.797-12.494,7.753c5.598,3.176,10.793,6.98,15.473,11.337c5.76-5.36,12.289-9.898,19.41-13.432
		c-2.061-7.182-3.188-14.759-3.188-22.603c0-21.67,8.439-41.356,22.191-55.994c-5.24-10.789-8.184-22.898-8.184-35.695
		c0-11.514,2.389-22.465,6.682-32.403c-24.189-14.213-40.438-40.488-40.438-70.572c0-38.98,27.266-71.57,63.762-79.793
		c-7.658-3.998-14.604-9.163-20.598-15.274C976.762,14.716,973.625,14.917,970.441,14.917z"/>
	<path fill="#802081" d="M796.773,353.559c5.266,2.627,10.215,5.793,14.76,9.444c13.512-26.581,41.1-44.803,72.959-44.803
		c3.742,0,7.42,0.268,11.027,0.754c-9.275-3.881-19.451-6.044-30.137-6.044C835.799,312.91,810.072,329.34,796.773,353.559z"/>
	<path opacity="0.5" fill="#FFFFFF" d="M796.773,353.559c5.266,2.627,10.215,5.793,14.76,9.444
		c13.512-26.581,41.1-44.803,72.959-44.803c3.742,0,7.42,0.268,11.027,0.754c-9.275-3.881-19.451-6.044-30.137-6.044
		C835.799,312.91,810.072,329.34,796.773,353.559z"/>
	<path fill="#802081" d="M251.197,9.646c7.573,2.441,15.643,3.774,24.027,3.774c8.385,0,16.452-1.342,24.023-3.785
		c-2.3-2.741-4.429-5.63-6.359-8.66c-8.022,2.628-16.582,4.068-25.481,4.068c-8.767,0-17.206-1.395-25.123-3.947
		c-11.181,31.87-41.515,54.729-77.204,54.729c-9.731,0-19.059-1.71-27.713-4.829c11.703,6.978,25.379,10.989,39.995,10.989
		C211.495,61.985,240.504,40.124,251.197,9.646z"/>
	<path opacity="0.5" fill="#FFFFFF" d="M251.197,9.646c7.573,2.441,15.643,3.774,24.027,3.774c8.385,0,16.452-1.342,24.023-3.785
		c-2.3-2.741-4.429-5.63-6.359-8.66c-8.022,2.628-16.582,4.068-25.481,4.068c-8.767,0-17.206-1.395-25.123-3.947
		c-11.181,31.87-41.515,54.729-77.204,54.729c-9.731,0-19.059-1.71-27.713-4.829c11.703,6.978,25.379,10.989,39.995,10.989
		C211.495,61.985,240.504,40.124,251.197,9.646z"/>
	<path fill="#802081" d="M730.65,340.202c1.424,2.918,2.684,5.928,3.758,9.026c8.156-2.729,16.875-4.227,25.949-4.227
		c8.898,0,17.453,1.438,25.471,4.066c-11.52-6.682-24.887-10.524-39.162-10.524C741.174,338.544,735.82,339.121,730.65,340.202z"/>
	<path opacity="0.5" fill="#FFFFFF" d="M730.65,340.202c1.424,2.918,2.684,5.928,3.758,9.026c8.156-2.729,16.875-4.227,25.949-4.227
		c8.898,0,17.453,1.438,25.471,4.066c-11.52-6.682-24.887-10.524-39.162-10.524C741.174,338.544,735.82,339.121,730.65,340.202z"/>
	<path fill="#802081" d="M791.5,11.924c14.113,20.457,37.705,33.874,64.439,33.874c12.951,0,25.15-3.175,35.906-8.749
		c-5.557,1.193-11.314,1.849-17.229,1.849c-27.953,0-52.621-14.028-67.379-35.418c-12.217,7.257-26.477,11.438-41.719,11.438
		c-6.459,0-12.734-0.772-18.764-2.188c-1.043,3.312-2.299,6.527-3.738,9.643c2.818,0.313,5.68,0.491,8.584,0.491
		C766.18,22.863,779.816,18.865,791.5,11.924z"/>
	<path opacity="0.5" fill="#FFFFFF" d="M791.5,11.924c14.113,20.457,37.705,33.874,64.439,33.874c12.951,0,25.15-3.175,35.906-8.749
		c-5.557,1.193-11.314,1.849-17.229,1.849c-27.953,0-52.621-14.028-67.379-35.418c-12.217,7.257-26.477,11.438-41.719,11.438
		c-6.459,0-12.734-0.772-18.764-2.188c-1.043,3.312-2.299,6.527-3.738,9.643c2.818,0.313,5.68,0.491,8.584,0.491
		C766.18,22.863,779.816,18.865,791.5,11.924z"/>
	<path fill="#FFFFFF" d="M597.012,27.527c13.922,25.275,40.809,42.404,71.703,42.404c11.389,0,22.23-2.329,32.082-6.534
		c18.654-7.961,33.738-22.654,42.221-41.025c1.439-3.116,2.695-6.332,3.738-9.643c6.029,1.416,12.305,2.188,18.764,2.188
		c15.242,0,29.502-4.181,41.719-11.438c14.758,21.39,39.426,35.418,67.379,35.418c5.914,0,11.672-0.655,17.229-1.849
		c13.09-2.81,25.01-8.748,34.953-17.001c4.221-3.503,8.1-7.403,11.543-11.674c9.857,4.208,20.705,6.544,32.1,6.544
		c3.184,0,6.32-0.202,9.408-0.556c5.994,6.111,12.939,11.276,20.598,15.274V0H539.131C553.424,16.141,573.986,26.59,597.012,27.527z
		"/>
	<path fill="#FFFFFF" d="M936.686,109.429c0,30.084,16.248,56.359,40.438,70.572c-4.293,9.938-6.682,20.889-6.682,32.403
		c0,12.797,2.943,24.906,8.184,35.695c-13.752,14.638-22.191,34.324-22.191,55.994c0,7.844,1.127,15.421,3.188,22.603
		c-7.121,3.533-13.65,8.071-19.41,13.432c-4.68-4.356-9.875-8.161-15.473-11.337c-8.846-5.014-18.715-8.42-29.219-9.837
		c-3.607-0.486-7.285-0.754-11.027-0.754c-31.859,0-59.447,18.222-72.959,44.803c-4.545-3.651-9.494-6.817-14.76-9.444
		c-3.512-1.751-7.168-3.251-10.945-4.49c-8.018-2.629-16.572-4.066-25.471-4.066c-9.074,0-17.793,1.498-25.949,4.227
		c-1.074-3.099-2.334-6.108-3.758-9.026c-9.434-19.333-26.262-34.389-46.803-41.495c-8.379-2.9-17.373-4.487-26.74-4.487
		c-38.992,0-71.59,27.284-79.799,63.797c-4.826-0.887-9.789-1.372-14.869-1.372c-31.701,0-59.17,18.04-72.754,44.404
		c-13.583-26.364-41.053-44.404-72.753-44.404c-33.353,0-62.022,19.966-74.763,48.589h658.278V29.636
		C963.951,37.859,936.686,70.449,936.686,109.429z"/>
	<path fill="#FFFFFF" d="M267.407,356.645c-16.499,0-31.852,4.888-44.7,13.29c-5.791,3.786-11.074,8.286-15.721,13.376
		c-3.45,3.778-6.55,7.881-9.25,12.259c-12.278-29.681-41.505-50.567-75.622-50.567c-8.502,0-16.696,1.309-24.405,3.716
		c-9.625,3.008-18.472,7.759-26.206,13.862c-5.479,4.325-10.414,9.312-14.632,14.877c-5.773-20.159-19.07-37.136-36.678-47.678
		c5.198-10.753,8.114-22.816,8.114-35.56c0-24.503-10.794-46.461-27.86-61.454v172.468h341.722
		C329.429,376.61,300.758,356.645,267.407,356.645z"/>
	<path fill="#FFFFFF" d="M40.298,158.8c0-26.848-12.934-50.676-32.909-65.593c19.975-14.917,32.909-38.745,32.909-65.594
		c0-5.299-0.522-10.476-1.485-15.495c6.773,1.815,13.888,2.799,21.234,2.799c10.971,0,21.429-2.175,30.989-6.092
		c1.856,3.94,4.027,7.7,6.461,11.265c9.627,14.096,23.54,25.023,39.87,30.905c8.654,3.118,17.982,4.829,27.713,4.829
		c35.689,0,66.023-22.858,77.204-54.729c7.917,2.552,16.356,3.947,25.123,3.947c8.9,0,17.459-1.44,25.481-4.068
		c1.93,3.029,4.06,5.918,6.359,8.66c0.571,0.681,1.153,1.352,1.747,2.013c14.975,16.718,36.711,27.25,60.924,27.25
		c20.595,0,39.397-7.626,53.779-20.187c14.382,12.561,33.185,20.187,53.78,20.187c29.444,0,55.244-15.559,69.654-38.897H0.448
		v229.031C24.314,214.74,40.298,188.642,40.298,158.8z"/>
</g>
<g opacity="0.4">
	
		<image overflow="visible" width="297" height="289" xlink:href="75300E4E39A1398A.png"  transform="matrix(1 0 0 1 138.7383 -277.3115)">
	</image>
</g>
<g>
	<path fill="#FFFFFF" d="M169.962-82.321c0,0,10.854-41.987,11.996-41.987c1.144,0,22.5,5.675,22.5,5.675
		s-23.643,35.454-25.07,36.312c-1.428,0.857-10.854,0-10.854,0"/>
	
		<linearGradient id="SVGID_1_" gradientUnits="userSpaceOnUse" x1="-1564.4878" y1="-2142.6274" x2="-1596.5222" y2="-2142.8701" gradientTransform="matrix(-4.371139e-08 1 -1 -4.371139e-08 -1956.3013 1437.5918)">
		<stop  offset="0" style="stop-color:#868686"/>
		<stop  offset="0.0295" style="stop-color:#8F8F8F"/>
		<stop  offset="0.1657" style="stop-color:#B4B4B4"/>
		<stop  offset="0.3024" style="stop-color:#D0D0D0"/>
		<stop  offset="0.4381" style="stop-color:#E5E5E5"/>
		<stop  offset="0.5725" style="stop-color:#F1F1F1"/>
		<stop  offset="0.7041" style="stop-color:#F5F5F5"/>
	</linearGradient>
	<path fill="url(#SVGID_1_)" d="M169.962-167.525c0,0,10.854,41.987,11.996,41.987c1.144,0,22.5-5.675,22.5-5.675
		s-23.643-35.455-25.07-36.312c-1.428-0.856-10.854,0-10.854,0"/>
	<path fill="#FFFFFF" d="M333.216-80.46"/>
	<path fill="#FFFFFF" d="M391.938-124.947c0,0-10.677,11.271-23.134,10.678c0,0-9.318,0.777-26.908,1.276
		c-51.286,1.459-155.731,1.738-169.424-11.954"/>
	
		<linearGradient id="SVGID_2_" gradientUnits="userSpaceOnUse" x1="-1509.3452" y1="-2243.3579" x2="-1492.7788" y2="-2243.3579" gradientTransform="matrix(-4.371139e-08 1 -1 -4.371139e-08 -1956.3013 1437.5918)">
		<stop  offset="0" style="stop-color:#9C9B9B"/>
		<stop  offset="0.5357" style="stop-color:#F5F5F5"/>
		<stop  offset="1" style="stop-color:#9C9B9B"/>
	</linearGradient>
	<path fill="url(#SVGID_2_)" d="M297.339-63.471c0-4.574-1.472-8.282-3.287-8.282h-8.71l-8.567,2.286v11.995l9.139,2.285h8.139
		C295.867-55.187,297.339-58.896,297.339-63.471z"/>
	
		<linearGradient id="SVGID_3_" gradientUnits="userSpaceOnUse" x1="-1539.3354" y1="-2260.2085" x2="-1522.7695" y2="-2260.2085" gradientTransform="matrix(-4.371139e-08 1 -1 -4.371139e-08 -1956.3013 1437.5918)">
		<stop  offset="0" style="stop-color:#9C9B9B"/>
		<stop  offset="0.5357" style="stop-color:#F5F5F5"/>
		<stop  offset="1" style="stop-color:#9C9B9B"/>
	</linearGradient>
	<path fill="url(#SVGID_3_)" d="M314.19-93.461c0-4.574-1.473-8.282-3.285-8.282h-8.712l-8.569,2.285v11.997l9.14,2.285h8.142
		C312.718-85.177,314.19-88.885,314.19-93.461z"/>
	<path fill="#FFFFFF" d="M262.077-26.911c0,0,47.691-85.349,46.555-85.407h-40.844c0,0-0.157,2.21-0.471,10.456
		c-0.505-0.025-1.034-0.04-1.58-0.04c-3.391,0-6.141,0.512-6.141,1.144c0,0.63,2.75,1.142,6.141,1.142
		c0.519,0,1.018-0.014,1.497-0.036c-0.088,2.455-0.189,5.347-0.302,8.763c-0.208,1.297-0.484,2.795-0.812,4.449
		c-0.502-0.026-1.025-0.04-1.568-0.04c-3.391,0-6.141,0.512-6.141,1.142c0,0.63,2.75,1.144,6.141,1.144
		c0.38,0,0.752-0.008,1.113-0.021c-0.77,3.68-1.75,7.975-2.851,12.587c-0.397-0.017-0.807-0.024-1.228-0.024
		c-3.392,0-6.142,0.513-6.142,1.144c0,0.631,2.75,1.142,6.142,1.142c0.231,0,0.46-0.003,0.687-0.007
		c-1.211,5.002-2.54,10.301-3.879,15.532c-0.313-0.009-0.632-0.015-0.96-0.015c-3.392,0-6.14,0.512-6.14,1.143
		s2.748,1.143,6.14,1.143c0.128,0,0.251-0.003,0.378-0.004c-4.614,17.913-9.16,34.375-9.16,34.375S256.649-14.915,262.077-26.911z"
		/>
	<ellipse cx="359.455" cy="-115.739" rx="0.524" ry="0.857"/>
	<ellipse cx="355.979" cy="-115.739" rx="0.523" ry="0.857"/>
	<ellipse cx="352.505" cy="-115.739" rx="0.524" ry="0.857"/>
	<ellipse cx="349.03" cy="-115.739" rx="0.523" ry="0.857"/>
	<ellipse cx="345.556" cy="-115.739" rx="0.524" ry="0.857"/>
	<ellipse cx="342.081" cy="-115.739" rx="0.524" ry="0.857"/>
	<ellipse cx="338.605" cy="-115.739" rx="0.524" ry="0.857"/>
	<ellipse cx="335.131" cy="-115.739" rx="0.523" ry="0.857"/>
	<ellipse cx="331.656" cy="-115.739" rx="0.524" ry="0.857"/>
	<ellipse cx="328.182" cy="-115.739" rx="0.524" ry="0.857"/>
	<ellipse cx="324.707" cy="-115.739" rx="0.526" ry="0.857"/>
	<ellipse cx="321.231" cy="-115.739" rx="0.523" ry="0.857"/>
	<ellipse cx="317.757" cy="-115.739" rx="0.523" ry="0.857"/>
	<ellipse cx="314.282" cy="-115.739" rx="0.524" ry="0.857"/>
	<ellipse cx="310.806" cy="-115.739" rx="0.522" ry="0.857"/>
	<ellipse cx="307.331" cy="-115.739" rx="0.522" ry="0.857"/>
	<ellipse cx="303.856" cy="-115.739" rx="0.524" ry="0.857"/>
	<ellipse cx="300.384" cy="-115.739" rx="0.524" ry="0.857"/>
	<ellipse cx="296.908" cy="-115.739" rx="0.525" ry="0.857"/>
	<ellipse cx="293.432" cy="-115.739" rx="0.523" ry="0.857"/>
	<ellipse cx="289.958" cy="-115.739" rx="0.524" ry="0.857"/>
	<ellipse cx="286.483" cy="-115.739" rx="0.523" ry="0.857"/>
	<ellipse cx="283.007" cy="-115.739" rx="0.522" ry="0.857"/>
	<ellipse cx="279.532" cy="-115.739" rx="0.523" ry="0.857"/>
	<ellipse cx="276.058" cy="-115.739" rx="0.523" ry="0.857"/>
	<ellipse cx="272.584" cy="-115.739" rx="0.524" ry="0.857"/>
	<ellipse cx="269.108" cy="-115.739" rx="0.524" ry="0.857"/>
	<ellipse cx="265.634" cy="-115.739" rx="0.523" ry="0.857"/>
	<ellipse cx="262.159" cy="-115.739" rx="0.524" ry="0.857"/>
	<ellipse cx="258.684" cy="-115.739" rx="0.523" ry="0.857"/>
	<ellipse cx="255.209" cy="-115.739" rx="0.523" ry="0.857"/>
	<ellipse cx="251.734" cy="-115.739" rx="0.524" ry="0.857"/>
	<ellipse cx="248.258" cy="-115.739" rx="0.523" ry="0.857"/>
	<ellipse cx="244.784" cy="-115.739" rx="0.523" ry="0.857"/>
	<ellipse cx="241.309" cy="-115.739" rx="0.524" ry="0.857"/>
	<ellipse cx="237.835" cy="-115.739" rx="0.524" ry="0.857"/>
	<ellipse cx="234.36" cy="-115.739" rx="0.524" ry="0.857"/>
	<ellipse cx="230.884" cy="-115.739" rx="0.523" ry="0.857"/>
	<polygon points="382.167,-124.879 377.597,-118.632 379.883,-124.879 	"/>
	<path fill="#FFFFFF" d="M333.216-169.386"/>
	
		<linearGradient id="SVGID_4_" gradientUnits="userSpaceOnUse" x1="-1575.1191" y1="-2238.5059" x2="-1562.4917" y2="-2238.5059" gradientTransform="matrix(-4.371139e-08 1 -1 -4.371139e-08 -1956.3013 1437.5918)">
		<stop  offset="0" style="stop-color:#868686"/>
		<stop  offset="0.1534" style="stop-color:#898989"/>
		<stop  offset="0.2839" style="stop-color:#949494"/>
		<stop  offset="0.4061" style="stop-color:#A5A5A5"/>
		<stop  offset="0.5232" style="stop-color:#BEBEBE"/>
		<stop  offset="0.6356" style="stop-color:#DEDEDE"/>
		<stop  offset="0.7041" style="stop-color:#F5F5F5"/>
	</linearGradient>
	<path fill="url(#SVGID_4_)" d="M391.938-124.899c0,0-10.677-11.271-23.134-10.677c0,0-9.318-0.777-26.908-1.277
		c-51.286-1.458-155.731-1.738-169.424,11.954"/>
	
		<linearGradient id="SVGID_5_" gradientUnits="userSpaceOnUse" x1="-648.04" y1="-2243.3579" x2="-631.4741" y2="-2243.3579" gradientTransform="matrix(4.375628e-08 -1 -1 -4.375628e-08 -1956.3013 -826.1333)">
		<stop  offset="0" style="stop-color:#9C9B9B"/>
		<stop  offset="0.5357" style="stop-color:#F5F5F5"/>
		<stop  offset="1" style="stop-color:#9C9B9B"/>
	</linearGradient>
	<path fill="url(#SVGID_5_)" d="M297.339-186.376c0,4.574-1.472,8.283-3.287,8.283h-8.71l-8.567-2.285v-11.996l9.139-2.285h8.139
		C295.867-194.659,297.339-190.951,297.339-186.376z"/>
	
		<linearGradient id="SVGID_6_" gradientUnits="userSpaceOnUse" x1="-678.0308" y1="-2260.2085" x2="-661.4644" y2="-2260.2085" gradientTransform="matrix(4.375628e-08 -1 -1 -4.375628e-08 -1956.3013 -826.1333)">
		<stop  offset="0" style="stop-color:#9C9B9B"/>
		<stop  offset="0.5357" style="stop-color:#F5F5F5"/>
		<stop  offset="1" style="stop-color:#9C9B9B"/>
	</linearGradient>
	<path fill="url(#SVGID_6_)" d="M314.19-156.386c0,4.575-1.473,8.283-3.285,8.283h-8.712l-8.569-2.286v-11.996l9.14-2.285h8.142
		C312.718-164.669,314.19-160.96,314.19-156.386z"/>
	
		<linearGradient id="SVGID_7_" gradientUnits="userSpaceOnUse" x1="-1571.2627" y1="-2235.8389" x2="-1674.4716" y2="-2234.0593" gradientTransform="matrix(-4.371139e-08 1 -1 -4.371139e-08 -1956.3013 1437.5918)">
		<stop  offset="0" style="stop-color:#868686"/>
		<stop  offset="0.0295" style="stop-color:#8F8F8F"/>
		<stop  offset="0.1657" style="stop-color:#B4B4B4"/>
		<stop  offset="0.3024" style="stop-color:#D0D0D0"/>
		<stop  offset="0.4381" style="stop-color:#E5E5E5"/>
		<stop  offset="0.5725" style="stop-color:#F1F1F1"/>
		<stop  offset="0.7041" style="stop-color:#F5F5F5"/>
	</linearGradient>
	<path fill="url(#SVGID_7_)" d="M262.077-222.936c0,0,47.691,85.351,46.555,85.409h-40.844c0,0-0.157-2.21-0.471-10.456
		c-0.505,0.024-1.034,0.039-1.58,0.039c-3.391,0-6.141-0.511-6.141-1.142c0-0.632,2.75-1.143,6.141-1.143
		c0.519,0,1.018,0.013,1.497,0.036c-0.088-2.455-0.189-5.348-0.302-8.763c-0.208-1.296-0.484-2.794-0.812-4.449
		c-0.502,0.025-1.025,0.039-1.568,0.039c-3.391,0-6.141-0.511-6.141-1.142c0-0.631,2.75-1.143,6.141-1.143
		c0.38,0,0.752,0.007,1.113,0.019c-0.77-3.679-1.75-7.974-2.851-12.585c-0.397,0.014-0.807,0.022-1.228,0.022
		c-3.392,0-6.142-0.512-6.142-1.142c0-0.631,2.75-1.143,6.142-1.143c0.231,0,0.46,0.003,0.687,0.007
		c-1.211-5.002-2.54-10.301-3.879-15.532c-0.313,0.009-0.632,0.016-0.96,0.016c-3.392,0-6.14-0.511-6.14-1.142
		c0-0.631,2.748-1.143,6.14-1.143c0.128,0,0.251,0.002,0.378,0.003c-4.614-17.914-9.16-34.375-9.16-34.375
		S256.649-234.932,262.077-222.936z"/>
	<ellipse cx="359.455" cy="-134.107" rx="0.524" ry="0.857"/>
	<ellipse cx="355.979" cy="-134.107" rx="0.523" ry="0.857"/>
	<ellipse cx="352.505" cy="-134.107" rx="0.524" ry="0.857"/>
	<ellipse cx="349.03" cy="-134.107" rx="0.523" ry="0.857"/>
	<ellipse cx="345.556" cy="-134.107" rx="0.524" ry="0.857"/>
	<ellipse cx="342.081" cy="-134.107" rx="0.524" ry="0.857"/>
	<ellipse cx="338.605" cy="-134.107" rx="0.524" ry="0.857"/>
	<ellipse cx="335.131" cy="-134.107" rx="0.523" ry="0.857"/>
	<ellipse cx="331.656" cy="-134.107" rx="0.524" ry="0.857"/>
	<ellipse cx="328.182" cy="-134.107" rx="0.524" ry="0.857"/>
	<ellipse cx="324.707" cy="-134.107" rx="0.526" ry="0.857"/>
	<ellipse cx="321.231" cy="-134.107" rx="0.523" ry="0.857"/>
	<ellipse cx="317.757" cy="-134.107" rx="0.523" ry="0.857"/>
	<ellipse cx="314.282" cy="-134.107" rx="0.524" ry="0.857"/>
	<ellipse cx="310.806" cy="-134.107" rx="0.522" ry="0.857"/>
	<ellipse cx="307.331" cy="-134.107" rx="0.522" ry="0.857"/>
	<ellipse cx="303.856" cy="-134.107" rx="0.524" ry="0.857"/>
	<ellipse cx="300.384" cy="-134.107" rx="0.524" ry="0.857"/>
	<ellipse cx="296.908" cy="-134.107" rx="0.525" ry="0.857"/>
	<ellipse cx="293.432" cy="-134.107" rx="0.523" ry="0.857"/>
	<ellipse cx="289.958" cy="-134.107" rx="0.524" ry="0.857"/>
	<ellipse cx="286.483" cy="-134.107" rx="0.523" ry="0.857"/>
	<ellipse cx="283.007" cy="-134.107" rx="0.522" ry="0.857"/>
	<ellipse cx="279.532" cy="-134.107" rx="0.523" ry="0.857"/>
	<ellipse cx="276.058" cy="-134.107" rx="0.523" ry="0.857"/>
	<ellipse cx="272.584" cy="-134.107" rx="0.524" ry="0.857"/>
	<ellipse cx="269.108" cy="-134.107" rx="0.524" ry="0.857"/>
	<ellipse cx="265.634" cy="-134.107" rx="0.523" ry="0.857"/>
	<ellipse cx="262.159" cy="-134.107" rx="0.524" ry="0.857"/>
	<ellipse cx="258.684" cy="-134.107" rx="0.523" ry="0.857"/>
	<ellipse cx="255.209" cy="-134.107" rx="0.523" ry="0.857"/>
	<ellipse cx="251.734" cy="-134.107" rx="0.524" ry="0.857"/>
	<ellipse cx="248.258" cy="-134.107" rx="0.523" ry="0.857"/>
	<ellipse cx="244.784" cy="-134.107" rx="0.523" ry="0.857"/>
	<ellipse cx="241.309" cy="-134.107" rx="0.524" ry="0.857"/>
	<ellipse cx="237.835" cy="-134.107" rx="0.524" ry="0.857"/>
	<ellipse cx="234.36" cy="-134.107" rx="0.524" ry="0.857"/>
	<ellipse cx="230.884" cy="-134.107" rx="0.523" ry="0.857"/>
	<polygon points="382.167,-124.879 377.597,-131.125 379.883,-124.879 	"/>
</g>
</svg>
