<?xml version="1.0" encoding="utf-8"?>
<!-- Generator: Adobe Illustrator 16.0.4, SVG Export Plug-In . SVG Version: 6.00 Build 0)  -->
<!DOCTYPE svg PUBLIC "-//W3C//DTD SVG 1.1//EN" "http://www.w3.org/Graphics/SVG/1.1/DTD/svg11.dtd">
<svg version="1.1" id="Lager_1" xmlns="http://www.w3.org/2000/svg" xmlns:xlink="http://www.w3.org/1999/xlink" x="0px" y="0px"
	 width="156px" height="214.509px" viewBox="0 0 156 214.509" enable-background="new 0 0 156 214.509" xml:space="preserve">
<g>
	<g>
		<defs>
			<path id="SVGID_1_" d="M16.155,194.336v18.006c0,1.196,0.971,2.167,2.168,2.167h12.492c1.196,0,2.167-0.971,2.167-2.167v-18.006
				H16.155z"/>
		</defs>
		<clipPath id="SVGID_2_">
			<use xlink:href="#SVGID_1_"  overflow="visible"/>
		</clipPath>
		<rect x="16.154" y="194.336" clip-path="url(#SVGID_2_)" fill="#929191" width="16.828" height="0.125"/>
		<rect x="16.154" y="194.461" clip-path="url(#SVGID_2_)" fill="#919190" width="16.828" height="0.266"/>
		<rect x="16.154" y="194.727" clip-path="url(#SVGID_2_)" fill="#90908F" width="16.828" height="0.266"/>
		<rect x="16.154" y="194.993" clip-path="url(#SVGID_2_)" fill="#8F8F8E" width="16.828" height="0.266"/>
		<rect x="16.154" y="195.258" clip-path="url(#SVGID_2_)" fill="#8E8E8D" width="16.828" height="0.266"/>
		<rect x="16.154" y="195.524" clip-path="url(#SVGID_2_)" fill="#8D8D8D" width="16.828" height="0.266"/>
		<rect x="16.154" y="195.79" clip-path="url(#SVGID_2_)" fill="#8C8C8C" width="16.828" height="0.27"/>
		<rect x="16.154" y="196.059" clip-path="url(#SVGID_2_)" fill="#8C8B8B" width="16.828" height="0.266"/>
		<rect x="16.154" y="196.325" clip-path="url(#SVGID_2_)" fill="#8B8B8A" width="16.828" height="0.266"/>
		<rect x="16.154" y="196.59" clip-path="url(#SVGID_2_)" fill="#8A8A89" width="16.828" height="0.266"/>
		<rect x="16.154" y="196.856" clip-path="url(#SVGID_2_)" fill="#898988" width="16.828" height="0.266"/>
		<rect x="16.154" y="197.122" clip-path="url(#SVGID_2_)" fill="#888887" width="16.828" height="0.266"/>
		<rect x="16.154" y="197.387" clip-path="url(#SVGID_2_)" fill="#878787" width="16.828" height="0.266"/>
		<rect x="16.154" y="197.653" clip-path="url(#SVGID_2_)" fill="#868686" width="16.828" height="0.266"/>
		<rect x="16.154" y="197.918" clip-path="url(#SVGID_2_)" fill="#868585" width="16.828" height="0.266"/>
		<rect x="16.154" y="198.184" clip-path="url(#SVGID_2_)" fill="#858484" width="16.828" height="0.266"/>
		<rect x="16.154" y="198.45" clip-path="url(#SVGID_2_)" fill="#848483" width="16.828" height="0.266"/>
		<rect x="16.154" y="198.715" clip-path="url(#SVGID_2_)" fill="#838382" width="16.828" height="0.266"/>
		<rect x="16.154" y="198.981" clip-path="url(#SVGID_2_)" fill="#828281" width="16.828" height="0.266"/>
		<rect x="16.154" y="199.247" clip-path="url(#SVGID_2_)" fill="#818180" width="16.828" height="0.266"/>
		<rect x="16.154" y="199.512" clip-path="url(#SVGID_2_)" fill="#808080" width="16.828" height="0.266"/>
		<rect x="16.154" y="199.778" clip-path="url(#SVGID_2_)" fill="#80807F" width="16.828" height="0.27"/>
		<rect x="16.154" y="200.047" clip-path="url(#SVGID_2_)" fill="#7F7F7E" width="16.828" height="0.266"/>
		<rect x="16.154" y="200.313" clip-path="url(#SVGID_2_)" fill="#7E7E7E" width="16.828" height="0.266"/>
		<rect x="16.154" y="200.579" clip-path="url(#SVGID_2_)" fill="#7D7D7D" width="16.828" height="0.266"/>
		<rect x="16.154" y="200.844" clip-path="url(#SVGID_2_)" fill="#7C7C7C" width="16.828" height="0.266"/>
		<rect x="16.154" y="201.11" clip-path="url(#SVGID_2_)" fill="#7C7B7B" width="16.828" height="0.266"/>
		<rect x="16.154" y="201.375" clip-path="url(#SVGID_2_)" fill="#7B7A7A" width="16.828" height="0.266"/>
		<rect x="16.154" y="201.641" clip-path="url(#SVGID_2_)" fill="#7A7979" width="16.828" height="0.266"/>
		<rect x="16.154" y="201.907" clip-path="url(#SVGID_2_)" fill="#797878" width="16.828" height="0.266"/>
		<rect x="16.154" y="202.172" clip-path="url(#SVGID_2_)" fill="#787777" width="16.828" height="0.266"/>
		<rect x="16.154" y="202.438" clip-path="url(#SVGID_2_)" fill="#777776" width="16.828" height="0.266"/>
		<rect x="16.154" y="202.704" clip-path="url(#SVGID_2_)" fill="#767675" width="16.828" height="0.266"/>
		<rect x="16.154" y="202.969" clip-path="url(#SVGID_2_)" fill="#757574" width="16.828" height="0.266"/>
		<rect x="16.154" y="203.235" clip-path="url(#SVGID_2_)" fill="#747473" width="16.828" height="0.266"/>
		<rect x="16.154" y="203.5" clip-path="url(#SVGID_2_)" fill="#737372" width="16.828" height="0.266"/>
		<rect x="16.154" y="203.766" clip-path="url(#SVGID_2_)" fill="#727271" width="16.828" height="0.266"/>
		<rect x="16.154" y="204.032" clip-path="url(#SVGID_2_)" fill="#717170" width="16.828" height="0.266"/>
		<rect x="16.154" y="204.297" clip-path="url(#SVGID_2_)" fill="#70706F" width="16.828" height="0.266"/>
		<rect x="16.154" y="204.563" clip-path="url(#SVGID_2_)" fill="#6F6F6E" width="16.828" height="0.266"/>
		<rect x="16.154" y="204.829" clip-path="url(#SVGID_2_)" fill="#6E6E6D" width="16.828" height="0.266"/>
		<rect x="16.154" y="205.094" clip-path="url(#SVGID_2_)" fill="#6D6D6C" width="16.828" height="0.266"/>
		<rect x="16.154" y="205.36" clip-path="url(#SVGID_2_)" fill="#6C6C6B" width="16.828" height="0.266"/>
		<rect x="16.154" y="205.625" clip-path="url(#SVGID_2_)" fill="#6B6B6A" width="16.828" height="0.266"/>
		<rect x="16.154" y="205.891" clip-path="url(#SVGID_2_)" fill="#6A6A6A" width="16.828" height="0.266"/>
		<rect x="16.154" y="206.157" clip-path="url(#SVGID_2_)" fill="#696969" width="16.828" height="0.266"/>
		<rect x="16.154" y="206.422" clip-path="url(#SVGID_2_)" fill="#696868" width="16.828" height="0.266"/>
		<rect x="16.154" y="206.688" clip-path="url(#SVGID_2_)" fill="#686767" width="16.828" height="0.27"/>
		<rect x="16.154" y="206.958" clip-path="url(#SVGID_2_)" fill="#676666" width="16.828" height="0.266"/>
		<rect x="16.154" y="207.223" clip-path="url(#SVGID_2_)" fill="#666565" width="16.828" height="0.266"/>
		<rect x="16.154" y="207.489" clip-path="url(#SVGID_2_)" fill="#656464" width="16.828" height="0.266"/>
		<rect x="16.154" y="207.754" clip-path="url(#SVGID_2_)" fill="#646463" width="16.828" height="0.266"/>
		<rect x="16.154" y="208.02" clip-path="url(#SVGID_2_)" fill="#636362" width="16.828" height="0.266"/>
		<rect x="16.154" y="208.286" clip-path="url(#SVGID_2_)" fill="#626261" width="16.828" height="0.266"/>
		<rect x="16.154" y="208.551" clip-path="url(#SVGID_2_)" fill="#616160" width="16.828" height="0.266"/>
		<rect x="16.154" y="208.817" clip-path="url(#SVGID_2_)" fill="#60605F" width="16.828" height="0.266"/>
		<rect x="16.154" y="209.083" clip-path="url(#SVGID_2_)" fill="#5F5F5E" width="16.828" height="0.266"/>
		<rect x="16.154" y="209.348" clip-path="url(#SVGID_2_)" fill="#5E5E5D" width="16.828" height="0.266"/>
		<rect x="16.154" y="209.614" clip-path="url(#SVGID_2_)" fill="#5D5D5C" width="16.828" height="0.266"/>
		<rect x="16.154" y="209.879" clip-path="url(#SVGID_2_)" fill="#5C5C5B" width="16.828" height="0.266"/>
		<rect x="16.154" y="210.145" clip-path="url(#SVGID_2_)" fill="#5B5B5A" width="16.828" height="0.266"/>
		<rect x="16.154" y="210.411" clip-path="url(#SVGID_2_)" fill="#595958" width="16.828" height="0.266"/>
		<rect x="16.154" y="210.676" clip-path="url(#SVGID_2_)" fill="#585857" width="16.828" height="0.27"/>
		<rect x="16.154" y="210.946" clip-path="url(#SVGID_2_)" fill="#575756" width="16.828" height="0.266"/>
		<rect x="16.154" y="211.211" clip-path="url(#SVGID_2_)" fill="#565655" width="16.828" height="0.266"/>
		<rect x="16.154" y="211.477" clip-path="url(#SVGID_2_)" fill="#555554" width="16.828" height="0.266"/>
		<rect x="16.154" y="211.743" clip-path="url(#SVGID_2_)" fill="#545453" width="16.828" height="0.266"/>
		<rect x="16.154" y="212.008" clip-path="url(#SVGID_2_)" fill="#535352" width="16.828" height="0.266"/>
		<rect x="16.154" y="212.274" clip-path="url(#SVGID_2_)" fill="#525251" width="16.828" height="0.266"/>
		<rect x="16.154" y="212.54" clip-path="url(#SVGID_2_)" fill="#515150" width="16.828" height="0.266"/>
		<rect x="16.154" y="212.805" clip-path="url(#SVGID_2_)" fill="#50504F" width="16.828" height="0.266"/>
		<rect x="16.154" y="213.071" clip-path="url(#SVGID_2_)" fill="#4F4F4E" width="16.828" height="0.266"/>
		<rect x="16.154" y="213.336" clip-path="url(#SVGID_2_)" fill="#4E4E4D" width="16.828" height="0.266"/>
		<rect x="16.154" y="213.602" clip-path="url(#SVGID_2_)" fill="#4D4D4C" width="16.828" height="0.266"/>
		<rect x="16.154" y="213.868" clip-path="url(#SVGID_2_)" fill="#4C4C4B" width="16.828" height="0.266"/>
		<rect x="16.154" y="214.133" clip-path="url(#SVGID_2_)" fill="#4B4B4A" width="16.828" height="0.266"/>
		<rect x="16.154" y="214.399" clip-path="url(#SVGID_2_)" fill="#4A4A49" width="16.828" height="0.109"/>
	</g>
</g>
<g>
	<g>
		<defs>
			<path id="SVGID_3_" d="M122.932,194.336v18.006c0,1.196,0.971,2.167,2.168,2.167h12.492c1.196,0,2.167-0.971,2.167-2.167v-18.006
				H122.932z"/>
		</defs>
		<clipPath id="SVGID_4_">
			<use xlink:href="#SVGID_3_"  overflow="visible"/>
		</clipPath>
		<rect x="122.932" y="194.336" clip-path="url(#SVGID_4_)" fill="#929191" width="16.828" height="0.125"/>
		<rect x="122.932" y="194.461" clip-path="url(#SVGID_4_)" fill="#919190" width="16.828" height="0.266"/>
		<rect x="122.932" y="194.727" clip-path="url(#SVGID_4_)" fill="#90908F" width="16.828" height="0.266"/>
		<rect x="122.932" y="194.993" clip-path="url(#SVGID_4_)" fill="#8F8F8E" width="16.828" height="0.266"/>
		<rect x="122.932" y="195.258" clip-path="url(#SVGID_4_)" fill="#8E8E8D" width="16.828" height="0.266"/>
		<rect x="122.932" y="195.524" clip-path="url(#SVGID_4_)" fill="#8D8D8D" width="16.828" height="0.266"/>
		<rect x="122.932" y="195.79" clip-path="url(#SVGID_4_)" fill="#8C8C8C" width="16.828" height="0.27"/>
		<rect x="122.932" y="196.059" clip-path="url(#SVGID_4_)" fill="#8C8B8B" width="16.828" height="0.266"/>
		<rect x="122.932" y="196.325" clip-path="url(#SVGID_4_)" fill="#8B8B8A" width="16.828" height="0.266"/>
		<rect x="122.932" y="196.59" clip-path="url(#SVGID_4_)" fill="#8A8A89" width="16.828" height="0.266"/>
		<rect x="122.932" y="196.856" clip-path="url(#SVGID_4_)" fill="#898988" width="16.828" height="0.266"/>
		<rect x="122.932" y="197.122" clip-path="url(#SVGID_4_)" fill="#888887" width="16.828" height="0.266"/>
		<rect x="122.932" y="197.387" clip-path="url(#SVGID_4_)" fill="#878787" width="16.828" height="0.266"/>
		<rect x="122.932" y="197.653" clip-path="url(#SVGID_4_)" fill="#868686" width="16.828" height="0.266"/>
		<rect x="122.932" y="197.918" clip-path="url(#SVGID_4_)" fill="#868585" width="16.828" height="0.266"/>
		<rect x="122.932" y="198.184" clip-path="url(#SVGID_4_)" fill="#858484" width="16.828" height="0.266"/>
		<rect x="122.932" y="198.45" clip-path="url(#SVGID_4_)" fill="#848483" width="16.828" height="0.266"/>
		<rect x="122.932" y="198.715" clip-path="url(#SVGID_4_)" fill="#838382" width="16.828" height="0.266"/>
		<rect x="122.932" y="198.981" clip-path="url(#SVGID_4_)" fill="#828281" width="16.828" height="0.266"/>
		<rect x="122.932" y="199.247" clip-path="url(#SVGID_4_)" fill="#818180" width="16.828" height="0.266"/>
		<rect x="122.932" y="199.512" clip-path="url(#SVGID_4_)" fill="#808080" width="16.828" height="0.266"/>
		<rect x="122.932" y="199.778" clip-path="url(#SVGID_4_)" fill="#80807F" width="16.828" height="0.27"/>
		<rect x="122.932" y="200.047" clip-path="url(#SVGID_4_)" fill="#7F7F7E" width="16.828" height="0.266"/>
		<rect x="122.932" y="200.313" clip-path="url(#SVGID_4_)" fill="#7E7E7E" width="16.828" height="0.266"/>
		<rect x="122.932" y="200.579" clip-path="url(#SVGID_4_)" fill="#7D7D7D" width="16.828" height="0.266"/>
		<rect x="122.932" y="200.844" clip-path="url(#SVGID_4_)" fill="#7C7C7C" width="16.828" height="0.266"/>
		<rect x="122.932" y="201.11" clip-path="url(#SVGID_4_)" fill="#7C7B7B" width="16.828" height="0.266"/>
		<rect x="122.932" y="201.375" clip-path="url(#SVGID_4_)" fill="#7B7A7A" width="16.828" height="0.266"/>
		<rect x="122.932" y="201.641" clip-path="url(#SVGID_4_)" fill="#7A7979" width="16.828" height="0.266"/>
		<rect x="122.932" y="201.907" clip-path="url(#SVGID_4_)" fill="#797878" width="16.828" height="0.266"/>
		<rect x="122.932" y="202.172" clip-path="url(#SVGID_4_)" fill="#787777" width="16.828" height="0.266"/>
		<rect x="122.932" y="202.438" clip-path="url(#SVGID_4_)" fill="#777776" width="16.828" height="0.266"/>
		<rect x="122.932" y="202.704" clip-path="url(#SVGID_4_)" fill="#767675" width="16.828" height="0.266"/>
		<rect x="122.932" y="202.969" clip-path="url(#SVGID_4_)" fill="#757574" width="16.828" height="0.266"/>
		<rect x="122.932" y="203.235" clip-path="url(#SVGID_4_)" fill="#747473" width="16.828" height="0.266"/>
		<rect x="122.932" y="203.5" clip-path="url(#SVGID_4_)" fill="#737372" width="16.828" height="0.266"/>
		<rect x="122.932" y="203.766" clip-path="url(#SVGID_4_)" fill="#727271" width="16.828" height="0.266"/>
		<rect x="122.932" y="204.032" clip-path="url(#SVGID_4_)" fill="#717170" width="16.828" height="0.266"/>
		<rect x="122.932" y="204.297" clip-path="url(#SVGID_4_)" fill="#70706F" width="16.828" height="0.266"/>
		<rect x="122.932" y="204.563" clip-path="url(#SVGID_4_)" fill="#6F6F6E" width="16.828" height="0.266"/>
		<rect x="122.932" y="204.829" clip-path="url(#SVGID_4_)" fill="#6E6E6D" width="16.828" height="0.266"/>
		<rect x="122.932" y="205.094" clip-path="url(#SVGID_4_)" fill="#6D6D6C" width="16.828" height="0.266"/>
		<rect x="122.932" y="205.36" clip-path="url(#SVGID_4_)" fill="#6C6C6B" width="16.828" height="0.266"/>
		<rect x="122.932" y="205.625" clip-path="url(#SVGID_4_)" fill="#6B6B6A" width="16.828" height="0.266"/>
		<rect x="122.932" y="205.891" clip-path="url(#SVGID_4_)" fill="#6A6A6A" width="16.828" height="0.266"/>
		<rect x="122.932" y="206.157" clip-path="url(#SVGID_4_)" fill="#696969" width="16.828" height="0.266"/>
		<rect x="122.932" y="206.422" clip-path="url(#SVGID_4_)" fill="#696868" width="16.828" height="0.266"/>
		<rect x="122.932" y="206.688" clip-path="url(#SVGID_4_)" fill="#686767" width="16.828" height="0.27"/>
		<rect x="122.932" y="206.958" clip-path="url(#SVGID_4_)" fill="#676666" width="16.828" height="0.266"/>
		<rect x="122.932" y="207.223" clip-path="url(#SVGID_4_)" fill="#666565" width="16.828" height="0.266"/>
		<rect x="122.932" y="207.489" clip-path="url(#SVGID_4_)" fill="#656464" width="16.828" height="0.266"/>
		<rect x="122.932" y="207.754" clip-path="url(#SVGID_4_)" fill="#646463" width="16.828" height="0.266"/>
		<rect x="122.932" y="208.02" clip-path="url(#SVGID_4_)" fill="#636362" width="16.828" height="0.266"/>
		<rect x="122.932" y="208.286" clip-path="url(#SVGID_4_)" fill="#626261" width="16.828" height="0.266"/>
		<rect x="122.932" y="208.551" clip-path="url(#SVGID_4_)" fill="#616160" width="16.828" height="0.266"/>
		<rect x="122.932" y="208.817" clip-path="url(#SVGID_4_)" fill="#60605F" width="16.828" height="0.266"/>
		<rect x="122.932" y="209.083" clip-path="url(#SVGID_4_)" fill="#5F5F5E" width="16.828" height="0.266"/>
		<rect x="122.932" y="209.348" clip-path="url(#SVGID_4_)" fill="#5E5E5D" width="16.828" height="0.266"/>
		<rect x="122.932" y="209.614" clip-path="url(#SVGID_4_)" fill="#5D5D5C" width="16.828" height="0.266"/>
		<rect x="122.932" y="209.879" clip-path="url(#SVGID_4_)" fill="#5C5C5B" width="16.828" height="0.266"/>
		<rect x="122.932" y="210.145" clip-path="url(#SVGID_4_)" fill="#5B5B5A" width="16.828" height="0.266"/>
		<rect x="122.932" y="210.411" clip-path="url(#SVGID_4_)" fill="#595958" width="16.828" height="0.266"/>
		<rect x="122.932" y="210.676" clip-path="url(#SVGID_4_)" fill="#585857" width="16.828" height="0.27"/>
		<rect x="122.932" y="210.946" clip-path="url(#SVGID_4_)" fill="#575756" width="16.828" height="0.266"/>
		<rect x="122.932" y="211.211" clip-path="url(#SVGID_4_)" fill="#565655" width="16.828" height="0.266"/>
		<rect x="122.932" y="211.477" clip-path="url(#SVGID_4_)" fill="#555554" width="16.828" height="0.266"/>
		<rect x="122.932" y="211.743" clip-path="url(#SVGID_4_)" fill="#545453" width="16.828" height="0.266"/>
		<rect x="122.932" y="212.008" clip-path="url(#SVGID_4_)" fill="#535352" width="16.828" height="0.266"/>
		<rect x="122.932" y="212.274" clip-path="url(#SVGID_4_)" fill="#525251" width="16.828" height="0.266"/>
		<rect x="122.932" y="212.54" clip-path="url(#SVGID_4_)" fill="#515150" width="16.828" height="0.266"/>
		<rect x="122.932" y="212.805" clip-path="url(#SVGID_4_)" fill="#50504F" width="16.828" height="0.266"/>
		<rect x="122.932" y="213.071" clip-path="url(#SVGID_4_)" fill="#4F4F4E" width="16.828" height="0.266"/>
		<rect x="122.932" y="213.336" clip-path="url(#SVGID_4_)" fill="#4E4E4D" width="16.828" height="0.266"/>
		<rect x="122.932" y="213.602" clip-path="url(#SVGID_4_)" fill="#4D4D4C" width="16.828" height="0.266"/>
		<rect x="122.932" y="213.868" clip-path="url(#SVGID_4_)" fill="#4C4C4B" width="16.828" height="0.266"/>
		<rect x="122.932" y="214.133" clip-path="url(#SVGID_4_)" fill="#4B4B4A" width="16.828" height="0.266"/>
		<rect x="122.932" y="214.399" clip-path="url(#SVGID_4_)" fill="#4A4A49" width="16.828" height="0.109"/>
	</g>
</g>
<g>
	<path fill="#4A494A" d="M92.914,0h-30.46c-1.156,0-2.095,0.938-2.095,2.095v22.918h34.65V2.095C95.01,0.938,94.071,0,92.914,0z
		 M90.551,19.458H64.956V6.603c0-0.854,0.692-1.546,1.547-1.546h22.501c0.854,0,1.547,0.693,1.547,1.546V19.458z"/>
</g>
<g>
	<rect x="74.307" y="22.336" fill="#4A494A" width="6.756" height="32.507"/>
</g>
<g>
	<g>
		<path fill="#802081" d="M134.361,44.24H96.53v8.326c0,1.258-1.021,2.278-2.278,2.278H61.119c-1.259,0-2.279-1.021-2.279-2.278
			V44.24H21.008C11.613,44.24,4,51.854,4,61.248v123.598c0,5.948,3.059,11.177,7.684,14.217v-5.624c0-1.565,1.27-2.834,2.834-2.834
			H33.85c1.564,0,2.834,1.269,2.834,2.834v8.416h82v-8.416c0-1.565,1.27-2.834,2.834-2.834h19.332c1.564,0,2.834,1.269,2.834,2.834
			v5.625c4.626-3.04,7.686-8.269,7.686-14.218V61.248C151.369,51.854,143.754,44.24,134.361,44.24z"/>
		<path fill="#424242" d="M120.684,203.854h-86v-10.416c0-0.46-0.374-0.834-0.834-0.834H14.518c-0.46,0-0.834,0.374-0.834,0.834
			v9.332l-3.099-2.037C5.209,197.2,2,191.26,2,184.845V61.248C2,50.767,10.527,42.24,21.008,42.24H60.84v10.326
			c0,0.153,0.125,0.278,0.279,0.278h33.133c0.153,0,0.278-0.125,0.278-0.278V42.24h39.831c10.48,0,19.008,8.527,19.008,19.008
			v123.598c0,6.416-3.21,12.355-8.587,15.89l-3.099,2.036v-9.333c0-0.46-0.374-0.834-0.834-0.834h-19.332
			c-0.46,0-0.834,0.374-0.834,0.834V203.854z M38.684,199.854h78v-6.416c0-2.665,2.169-4.834,4.834-4.834h19.332
			c2.665,0,4.834,2.169,4.834,4.834v1.252c2.353-2.697,3.686-6.173,3.686-9.845V61.248c0-8.275-6.732-15.008-15.008-15.008H98.53
			v6.326c0,2.359-1.919,4.278-4.278,4.278H61.119c-2.359,0-4.279-1.919-4.279-4.278V46.24H21.008C12.732,46.24,6,52.972,6,61.248
			v123.598c0,3.672,1.332,7.146,3.684,9.843v-1.25c0-2.665,2.169-4.834,4.834-4.834H33.85c2.665,0,4.834,2.169,4.834,4.834V199.854z
			"/>
	</g>
	<g>
		<g>
			<rect x="101.779" y="44.24" fill="#802081" width="6.399" height="157.614"/>
		</g>
		<g>
			<path fill="#802081" d="M142.933,46.575V191.53c0.462,0.505,0.751,1.17,0.751,1.908v5.625c4.626-3.04,7.686-8.269,7.686-14.218
				V61.248C151.369,54.984,147.974,49.526,142.933,46.575z"/>
		</g>
		<g>
			<path fill="#802081" d="M33.191,44.24v146.364h0.658c1.564,0,2.834,1.269,2.834,2.834v8.416h2.907V44.24H33.191z"/>
		</g>
		<g>
			<path fill="#802081" d="M21.008,44.24c-0.518,0-1.028,0.032-1.535,0.078v146.287h6.4V44.24H21.008z"/>
		</g>
		<g>
			<path fill="#802081" d="M4,61.248v123.598c0,5.948,3.059,11.177,7.684,14.217v-5.624c0-0.578,0.175-1.113,0.472-1.562V46.745
				C7.271,49.733,4,55.102,4,61.248z"/>
		</g>
		<g>
			<path fill="#802081" d="M115.497,44.24v157.614h3.187v-8.416c0-1.565,1.27-2.834,2.834-2.834h0.379V44.24H115.497z"/>
		</g>
		<g>
			<rect x="74.344" y="54.844" fill="#802081" width="6.4" height="147.01"/>
		</g>
		<g>
			<rect x="46.908" y="44.24" fill="#802081" width="6.4" height="157.614"/>
		</g>
		<g>
			<path fill="#802081" d="M94.252,54.844h-6.19v147.01h6.399V54.823C94.392,54.829,94.324,54.844,94.252,54.844z"/>
		</g>
		<g>
			<path fill="#802081" d="M61.119,54.844c-0.17,0-0.334-0.021-0.493-0.057v147.067h6.399V54.844H61.119z"/>
		</g>
		<g>
			<path fill="#802081" d="M134.361,44.24h-5.146v146.364h6.399V44.303C135.199,44.273,134.784,44.24,134.361,44.24z"/>
		</g>
		<g>
			<path fill="#63246D" d="M12.155,46.745v145.131c0.507-0.766,1.375-1.272,2.362-1.272h4.955V44.317
				C16.806,44.556,14.324,45.418,12.155,46.745z"/>
		</g>
		<g>
			<rect x="25.873" y="44.24" fill="#63246D" width="7.318" height="146.364"/>
		</g>
		<g>
			<rect x="39.591" y="44.24" fill="#63246D" width="7.317" height="157.614"/>
		</g>
		<g>
			<path fill="#63246D" d="M58.84,52.565V44.24h-5.531v157.614h7.317V54.787C59.605,54.561,58.84,53.654,58.84,52.565z"/>
		</g>
		<g>
			<rect x="67.025" y="54.844" fill="#63246D" width="7.318" height="147.01"/>
		</g>
		<g>
			<rect x="80.744" y="54.844" fill="#63246D" width="7.317" height="147.01"/>
		</g>
		<g>
			<path fill="#63246D" d="M96.53,44.24v8.326c0,1.186-0.911,2.15-2.069,2.257v147.031h7.318V44.24H96.53z"/>
		</g>
		<g>
			<rect x="108.179" y="44.24" fill="#63246D" width="7.318" height="157.614"/>
		</g>
		<g>
			<rect x="121.896" y="44.24" fill="#63246D" width="7.318" height="146.364"/>
		</g>
		<g>
			<path fill="#63246D" d="M135.614,44.303v146.301h5.235c0.827,0,1.564,0.36,2.083,0.926V46.575
				C140.754,45.299,138.271,44.498,135.614,44.303z"/>
		</g>
	</g>
</g>
<g>
	<path fill="#FFFFFF" d="M36.216,105.667l-3.756,0.698l2.659,14.312l-4.83,0.896l-6.108-32.869l4.83-0.898l2.526,13.596l3.757-0.698
		l-2.526-13.595l4.83-0.898l6.108,32.871l-4.83,0.896L36.216,105.667z"/>
	<path fill="#FFFFFF" d="M41.174,85.545l4.83-0.897l6.108,32.87l-4.83,0.897L41.174,85.545z"/>
	<path fill="#FFFFFF" d="M48.804,89.262l-0.923-4.963l13.953-2.594l0.923,4.964l-4.562,0.848l5.186,27.906l-4.83,0.897
		l-5.186-27.906L48.804,89.262z"/>
	<path fill="#FFFFFF" d="M83.135,96.994c0.063,0.59,0.17,1.912,0.123,3.401c-0.048,1.489-0.232,3.234-0.682,4.799
		c0.592,0.445,1.069,0.773,1.468,0.931c0.408,0.201,0.71,0.33,0.853,0.35l0.956,5.144c-0.135,0.024-0.322,0.014-0.66-0.062
		c-0.622-0.115-1.572-0.494-2.742-1.063c-0.558-0.267-1.133-0.622-1.725-1.067c-1.27,2.133-2.923,3.689-4.936,4.062
		c-1.923,0.357-3.736-0.184-5.148-1.31s-2.451-2.737-2.816-4.704c-0.69-3.713,0.631-7.059,1.941-10.216
		c-2.164-2.929-3.48-5.784-4.12-9.228c-0.454-2.691-0.044-4.711,1.292-6.486c0.664-0.91,1.76-1.483,3.281-1.766
		c3.041-0.565,4.804,0.957,5.807,2.621c1.151,1.961,1.988,4.721,0.879,8.211c-0.551,1.768-1.316,3.623-2.298,5.562
		c2.038,2.999,3.293,4.523,4.375,5.618c0.274-1.763,0.18-4.013,0.173-4.798L83.135,96.994z M73.224,86.483
		c-0.163-1.126-0.508-1.988-1.125-2.567c-0.281-0.271-0.673-0.384-1.165-0.292c-0.938,0.174-1.236,1.062-1.257,1.945
		c-0.033,1.07,0.266,2.68,0.976,4.26c0.337,0.816,0.816,1.652,1.401,2.562C72.819,90.537,73.548,88.227,73.224,86.483z
		 M77.611,106.857c-1.565-1.698-3.139-3.442-4.998-5.733c-0.351,0.852-0.453,1.796-0.444,3.09c0.018,1.338,0.339,3.314,1.368,4.372
		c0.52,0.551,1.068,0.773,1.695,0.657C76.439,109.018,76.961,108.088,77.611,106.857z"/>
	<path fill="#FFFFFF" d="M88.468,110.762l-6.108-32.871l3.802-0.706c4.472-0.831,7.053-0.386,8.814,1.878
		c1.719,2.271,2.661,6.353,3.858,12.793c1.196,6.439,1.774,10.542,0.987,13.279c-0.831,2.746-3.08,4.089-7.552,4.92L88.468,110.762z
		 M92.399,105.034c1.655-0.307,2.561-0.661,2.754-2.361c0.082-0.803,0.045-1.998-0.201-3.572c-0.246-1.573-0.637-3.676-1.135-6.358
		c-0.499-2.683-0.89-4.785-1.226-6.343c-0.327-1.512-0.722-2.641-1.095-3.404c-0.783-1.475-1.756-1.479-3.41-1.171L92.399,105.034z"
		/>
	<path fill="#FFFFFF" d="M98.994,74.8l4.83-0.897l6.108,32.869l-4.83,0.898L98.994,74.8z"/>
	<path fill="#FFFFFF" d="M106.624,78.517l-0.922-4.964l13.953-2.593l0.922,4.964l-4.562,0.848l5.187,27.906l-4.83,0.897
		l-5.187-27.906L106.624,78.517z"/>
</g>
<g>
	<path fill="#FFFFFF" d="M50.17,166.098l-6.343-16.725l-1.618,0.301l3.216,17.305l-6.029,1.121l-7.625-41.029l6.029-1.121
		c7.201-1.338,11.028,2.166,12.471,9.926c0.757,4.074,0.381,7.957-1.617,9.945l7.545,19.156L50.17,166.098z M41.172,144.092
		c0.837-0.155,1.933-0.475,2.681-1.422s1.193-2.59,0.654-5.493c-0.54-2.902-1.557-4.33-2.595-4.946
		c-1.038-0.615-2.165-0.464-3.002-0.309L41.172,144.092z"/>
	<path fill="#FFFFFF" d="M51.924,123.325l13.789-2.562l1.151,6.197l-7.76,1.441l2.003,10.773l5.582-1.037l1.224,6.587l-5.582,1.038
		l2.096,11.275l7.759-1.441l1.151,6.196l-13.788,2.562L51.924,123.325z"/>
	<path fill="#FFFFFF" d="M81.099,129.281c-0.249-1.34-0.585-2.837-1.194-3.937c-0.598-1.043-1.357-1.711-2.306-1.535
		c-1.553,0.346-1.755,2.059-1.309,4.459c0.259,1.396,1.144,2.732,2.327,4.131c1.184,1.396,2.656,2.797,4.15,4.31
		c1.779,1.807,3.569,3.668,5.014,5.536c1.444,1.869,2.563,3.854,2.979,6.088c0.509,2.735,0.539,5.386-0.392,7.522
		c-0.932,2.137-2.769,3.749-6.062,4.36c-3.852,0.716-6.298-0.331-7.941-2.335c-1.643-2.005-2.472-4.911-3.042-7.981l5.813-1.658
		c0.321,1.73,0.699,3.45,1.384,4.652c0.64,1.266,1.476,2.035,2.76,1.797c1.786-0.332,2.104-2.355,1.616-4.979
		c-0.249-1.34-1.21-2.779-2.403-4.231c-0.648-0.688-1.306-1.432-2.021-2.166c-1.483-1.456-3.119-3.116-4.843-4.933
		s-3.123-3.75-4.142-5.813c-0.532-0.998-0.907-2.083-1.114-3.2c-0.415-2.232-0.358-4.727,0.583-6.807
		c0.952-2.025,2.667-3.673,5.504-4.258c3.618-0.729,6.019,0.383,7.596,2.343c1.588,2.015,2.431,4.688,2.855,6.977L81.099,129.281z"
		/>
	<path fill="#FFFFFF" d="M109.954,146.267c0.256,1.686,0.201,3.255-0.175,4.653c-0.294,1.209-0.879,2.415-1.84,3.46
		c-0.95,1.101-2.364,1.883-4.374,2.256c-2.01,0.374-3.666,0.162-4.948-0.523c-1.271-0.63-2.194-1.556-2.905-2.579
		c-0.852-1.17-1.467-2.614-1.834-4.279l-4.492-24.17c-0.244-1.63-0.19-3.199,0.186-4.598c0.295-1.21,0.813-2.461,1.773-3.506
		c0.961-1.045,2.421-1.894,4.431-2.267c2.009-0.374,3.62-0.096,4.892,0.534c1.272,0.63,2.262,1.602,2.972,2.625
		c0.853,1.169,1.468,2.614,1.824,4.223L109.954,146.267z M99.434,123.217c-0.207-1.117-0.575-1.857-1.258-2.424
		c-0.331-0.228-0.81-0.312-1.312-0.218c-1.061,0.196-1.418,1.071-1.506,1.839c-0.085,0.478-0.047,0.99,0.057,1.549l4.492,24.171
		c0.218,1.173,0.642,1.902,1.314,2.412c0.33,0.228,0.752,0.322,1.255,0.229c1.061-0.196,1.438-0.96,1.506-1.839
		c0.095-0.422,0.058-0.935-0.057-1.549L99.434,123.217z"/>
	<path fill="#FFFFFF" d="M126.371,151.936l-6.342-16.724l-1.618,0.301l3.215,17.306l-6.029,1.12l-7.624-41.03l6.029-1.12
		c7.2-1.338,11.028,2.167,12.47,9.926c0.758,4.075,0.382,7.956-1.617,9.944l7.545,19.158L126.371,151.936z M117.373,129.931
		c0.837-0.155,1.933-0.475,2.681-1.423c0.748-0.947,1.193-2.588,0.654-5.492c-0.54-2.902-1.556-4.33-2.594-4.945
		c-1.039-0.615-2.166-0.465-3.003-0.309L117.373,129.931z"/>
</g>
</svg>
