<?xml version="1.0" encoding="utf-8"?>
<!-- Generator: Adobe Illustrator 16.0.4, SVG Export Plug-In . SVG Version: 6.00 Build 0)  -->
<!DOCTYPE svg PUBLIC "-//W3C//DTD SVG 1.1//EN" "http://www.w3.org/Graphics/SVG/1.1/DTD/svg11.dtd">
<svg version="1.1" id="Lager_1" xmlns="http://www.w3.org/2000/svg" xmlns:xlink="http://www.w3.org/1999/xlink" x="0px" y="0px"
	 width="230px" height="230px" viewBox="0 0 230 230" enable-background="new 0 0 230 230" xml:space="preserve">
<g opacity="0.4">
	<image overflow="visible" width="297" height="288" xlink:href="2B3F0831F46C5167.png"  transform="matrix(1 0 0 1 -30 -36)">
	</image>
</g>
<g>
	<path fill="#FFFFFF" d="M1.428,158.005c0,0,10.854-41.986,11.996-41.986c1.144,0,22.5,5.676,22.5,5.676
		s-23.643,35.453-25.07,36.311s-10.854,0-10.854,0"/>
	
		<linearGradient id="SVGID_1_" gradientUnits="userSpaceOnUse" x1="-1324.1616" y1="-1974.0923" x2="-1356.1957" y2="-1974.335" gradientTransform="matrix(-4.371139e-08 1 -1 -4.371139e-08 -1956.3013 1437.5918)">
		<stop  offset="0" style="stop-color:#868686"/>
		<stop  offset="0.0295" style="stop-color:#8F8F8F"/>
		<stop  offset="0.1657" style="stop-color:#B4B4B4"/>
		<stop  offset="0.3024" style="stop-color:#D0D0D0"/>
		<stop  offset="0.4381" style="stop-color:#E5E5E5"/>
		<stop  offset="0.5725" style="stop-color:#F1F1F1"/>
		<stop  offset="0.7041" style="stop-color:#F5F5F5"/>
	</linearGradient>
	<path fill="url(#SVGID_1_)" d="M1.428,72.802c0,0,10.854,41.987,11.996,41.987c1.144,0,22.5-5.675,22.5-5.675
		s-23.643-35.455-25.07-36.312c-1.428-0.856-10.854,0-10.854,0"/>
	<path fill="#FFFFFF" d="M164.682,159.867"/>
	<path fill="#FFFFFF" d="M223.403,115.379c0,0-10.677,11.271-23.134,10.678c0,0-9.318,0.776-26.908,1.276
		c-51.286,1.459-155.731,1.738-169.424-11.954"/>
	
		<linearGradient id="SVGID_2_" gradientUnits="userSpaceOnUse" x1="-1269.0186" y1="-2074.8237" x2="-1252.4521" y2="-2074.8237" gradientTransform="matrix(-4.371139e-08 1 -1 -4.371139e-08 -1956.3013 1437.5918)">
		<stop  offset="0" style="stop-color:#9C9B9B"/>
		<stop  offset="0.5357" style="stop-color:#F5F5F5"/>
		<stop  offset="1" style="stop-color:#9C9B9B"/>
	</linearGradient>
	<path fill="url(#SVGID_2_)" d="M128.805,176.856c0-4.574-1.472-8.282-3.286-8.282h-8.711l-8.567,2.286v11.995l9.139,2.285h8.14
		C127.333,185.14,128.805,181.431,128.805,176.856z"/>
	
		<linearGradient id="SVGID_3_" gradientUnits="userSpaceOnUse" x1="-1299.0088" y1="-2091.6743" x2="-1282.4424" y2="-2091.6743" gradientTransform="matrix(-4.371139e-08 1 -1 -4.371139e-08 -1956.3013 1437.5918)">
		<stop  offset="0" style="stop-color:#9C9B9B"/>
		<stop  offset="0.5357" style="stop-color:#F5F5F5"/>
		<stop  offset="1" style="stop-color:#9C9B9B"/>
	</linearGradient>
	<path fill="url(#SVGID_3_)" d="M145.656,146.866c0-4.574-1.473-8.282-3.285-8.282h-8.712l-8.569,2.285v11.996l9.14,2.285h8.142
		C144.184,155.15,145.656,151.441,145.656,146.866z"/>
	<path fill="#FFFFFF" d="M93.543,213.416c0,0,47.691-85.349,46.555-85.406H99.254c0,0-0.157,2.21-0.471,10.455
		c-0.505-0.025-1.034-0.04-1.58-0.04c-3.391,0-6.141,0.513-6.141,1.144s2.75,1.143,6.141,1.143c0.519,0,1.018-0.014,1.497-0.036
		c-0.088,2.454-0.189,5.347-0.302,8.763c-0.208,1.297-0.484,2.795-0.812,4.449c-0.502-0.025-1.025-0.039-1.568-0.039
		c-3.391,0-6.141,0.512-6.141,1.142s2.75,1.144,6.141,1.144c0.38,0,0.752-0.008,1.113-0.021c-0.77,3.681-1.75,7.975-2.851,12.587
		c-0.397-0.017-0.807-0.024-1.228-0.024c-3.392,0-6.142,0.513-6.142,1.144s2.75,1.143,6.142,1.143c0.231,0,0.46-0.004,0.687-0.008
		c-1.211,5.003-2.54,10.302-3.879,15.532c-0.313-0.009-0.632-0.015-0.96-0.015c-3.392,0-6.14,0.512-6.14,1.143
		s2.748,1.143,6.14,1.143c0.128,0,0.251-0.003,0.378-0.004c-4.614,17.913-9.16,34.375-9.16,34.375S88.115,225.412,93.543,213.416z"
		/>
	<ellipse cx="190.921" cy="124.588" rx="0.524" ry="0.856"/>
	<ellipse cx="187.445" cy="124.588" rx="0.523" ry="0.856"/>
	<ellipse cx="183.971" cy="124.588" rx="0.524" ry="0.856"/>
	<ellipse cx="180.496" cy="124.588" rx="0.523" ry="0.856"/>
	<ellipse cx="177.021" cy="124.588" rx="0.524" ry="0.856"/>
	<ellipse cx="173.547" cy="124.588" rx="0.524" ry="0.856"/>
	<ellipse cx="170.071" cy="124.588" rx="0.524" ry="0.856"/>
	<ellipse cx="166.597" cy="124.588" rx="0.523" ry="0.856"/>
	<ellipse cx="163.122" cy="124.588" rx="0.524" ry="0.856"/>
	<ellipse cx="159.647" cy="124.588" rx="0.524" ry="0.856"/>
	<ellipse cx="156.173" cy="124.588" rx="0.526" ry="0.856"/>
	<ellipse cx="152.697" cy="124.588" rx="0.523" ry="0.856"/>
	<ellipse cx="149.223" cy="124.588" rx="0.523" ry="0.856"/>
	<ellipse cx="145.748" cy="124.588" rx="0.524" ry="0.856"/>
	<ellipse cx="142.271" cy="124.588" rx="0.522" ry="0.856"/>
	<ellipse cx="138.797" cy="124.588" rx="0.522" ry="0.856"/>
	<ellipse cx="135.322" cy="124.588" rx="0.524" ry="0.856"/>
	<ellipse cx="131.85" cy="124.588" rx="0.524" ry="0.856"/>
	<ellipse cx="128.374" cy="124.588" rx="0.525" ry="0.856"/>
	<ellipse cx="124.897" cy="124.588" rx="0.523" ry="0.856"/>
	<ellipse cx="121.425" cy="124.588" rx="0.525" ry="0.856"/>
	<ellipse cx="117.949" cy="124.588" rx="0.523" ry="0.856"/>
	<ellipse cx="114.473" cy="124.588" rx="0.522" ry="0.856"/>
	<ellipse cx="110.998" cy="124.588" rx="0.523" ry="0.856"/>
	<ellipse cx="107.523" cy="124.588" rx="0.523" ry="0.856"/>
	<ellipse cx="104.05" cy="124.588" rx="0.524" ry="0.856"/>
	<ellipse cx="100.574" cy="124.588" rx="0.524" ry="0.856"/>
	<ellipse cx="97.1" cy="124.588" rx="0.523" ry="0.856"/>
	<ellipse cx="93.625" cy="124.588" rx="0.524" ry="0.856"/>
	<ellipse cx="90.149" cy="124.588" rx="0.523" ry="0.856"/>
	<ellipse cx="86.675" cy="124.588" rx="0.523" ry="0.856"/>
	<ellipse cx="83.2" cy="124.588" rx="0.524" ry="0.856"/>
	<ellipse cx="79.724" cy="124.588" rx="0.523" ry="0.856"/>
	<ellipse cx="76.25" cy="124.588" rx="0.523" ry="0.856"/>
	<ellipse cx="72.775" cy="124.588" rx="0.524" ry="0.856"/>
	<ellipse cx="69.301" cy="124.588" rx="0.524" ry="0.856"/>
	<ellipse cx="65.826" cy="124.588" rx="0.524" ry="0.856"/>
	<ellipse cx="62.35" cy="124.588" rx="0.523" ry="0.856"/>
	<polygon points="213.633,115.448 209.062,121.695 211.349,115.448 	"/>
	<path fill="#FFFFFF" d="M164.682,70.941"/>
	
		<linearGradient id="SVGID_4_" gradientUnits="userSpaceOnUse" x1="-1334.7925" y1="-2069.9717" x2="-1322.165" y2="-2069.9717" gradientTransform="matrix(-4.371139e-08 1 -1 -4.371139e-08 -1956.3013 1437.5918)">
		<stop  offset="0" style="stop-color:#868686"/>
		<stop  offset="0.1534" style="stop-color:#898989"/>
		<stop  offset="0.2839" style="stop-color:#949494"/>
		<stop  offset="0.4061" style="stop-color:#A5A5A5"/>
		<stop  offset="0.5232" style="stop-color:#BEBEBE"/>
		<stop  offset="0.6356" style="stop-color:#DEDEDE"/>
		<stop  offset="0.7041" style="stop-color:#F5F5F5"/>
	</linearGradient>
	<path fill="url(#SVGID_4_)" d="M223.403,115.427c0,0-10.677-11.271-23.134-10.677c0,0-9.318-0.777-26.908-1.277
		c-51.286-1.458-155.731-1.738-169.424,11.954"/>
	
		<linearGradient id="SVGID_5_" gradientUnits="userSpaceOnUse" x1="-888.3667" y1="-2074.8237" x2="-871.8008" y2="-2074.8237" gradientTransform="matrix(4.375628e-08 -1 -1 -4.375628e-08 -1956.3013 -826.1333)">
		<stop  offset="0" style="stop-color:#9C9B9B"/>
		<stop  offset="0.5357" style="stop-color:#F5F5F5"/>
		<stop  offset="1" style="stop-color:#9C9B9B"/>
	</linearGradient>
	<path fill="url(#SVGID_5_)" d="M128.805,53.951c0,4.574-1.472,8.283-3.286,8.283h-8.711l-8.567-2.285V47.953l9.139-2.285h8.14
		C127.333,45.667,128.805,49.375,128.805,53.951z"/>
	
		<linearGradient id="SVGID_6_" gradientUnits="userSpaceOnUse" x1="-918.3574" y1="-2091.6743" x2="-901.791" y2="-2091.6743" gradientTransform="matrix(4.375628e-08 -1 -1 -4.375628e-08 -1956.3013 -826.1333)">
		<stop  offset="0" style="stop-color:#9C9B9B"/>
		<stop  offset="0.5357" style="stop-color:#F5F5F5"/>
		<stop  offset="1" style="stop-color:#9C9B9B"/>
	</linearGradient>
	<path fill="url(#SVGID_6_)" d="M145.656,83.941c0,4.575-1.473,8.283-3.285,8.283h-8.712l-8.569-2.286V77.942l9.14-2.285h8.142
		C144.184,75.658,145.656,79.367,145.656,83.941z"/>
	
		<linearGradient id="SVGID_7_" gradientUnits="userSpaceOnUse" x1="-1330.936" y1="-2067.3042" x2="-1434.1449" y2="-2065.5247" gradientTransform="matrix(-4.371139e-08 1 -1 -4.371139e-08 -1956.3013 1437.5918)">
		<stop  offset="0" style="stop-color:#868686"/>
		<stop  offset="0.0295" style="stop-color:#8F8F8F"/>
		<stop  offset="0.1657" style="stop-color:#B4B4B4"/>
		<stop  offset="0.3024" style="stop-color:#D0D0D0"/>
		<stop  offset="0.4381" style="stop-color:#E5E5E5"/>
		<stop  offset="0.5725" style="stop-color:#F1F1F1"/>
		<stop  offset="0.7041" style="stop-color:#F5F5F5"/>
	</linearGradient>
	<path fill="url(#SVGID_7_)" d="M93.543,17.391c0,0,47.691,85.351,46.555,85.409H99.254c0,0-0.157-2.21-0.471-10.456
		c-0.505,0.024-1.034,0.039-1.58,0.039c-3.391,0-6.141-0.511-6.141-1.142c0-0.632,2.75-1.143,6.141-1.143
		c0.519,0,1.018,0.013,1.497,0.036c-0.088-2.455-0.189-5.348-0.302-8.763c-0.208-1.296-0.484-2.794-0.812-4.449
		c-0.502,0.025-1.025,0.039-1.568,0.039c-3.391,0-6.141-0.511-6.141-1.142c0-0.631,2.75-1.143,6.141-1.143
		c0.38,0,0.752,0.007,1.113,0.019c-0.77-3.679-1.75-7.974-2.851-12.585c-0.397,0.014-0.807,0.022-1.228,0.022
		c-3.392,0-6.142-0.512-6.142-1.142c0-0.631,2.75-1.143,6.142-1.143c0.231,0,0.46,0.003,0.687,0.007
		c-1.211-5.002-2.54-10.301-3.879-15.532c-0.313,0.009-0.632,0.016-0.96,0.016c-3.392,0-6.14-0.511-6.14-1.142
		c0-0.631,2.748-1.143,6.14-1.143c0.128,0,0.251,0.002,0.378,0.003c-4.614-17.914-9.16-34.375-9.16-34.375
		S88.115,5.395,93.543,17.391z"/>
	<ellipse cx="190.921" cy="106.22" rx="0.524" ry="0.857"/>
	<ellipse cx="187.445" cy="106.22" rx="0.523" ry="0.857"/>
	<ellipse cx="183.971" cy="106.22" rx="0.524" ry="0.857"/>
	<ellipse cx="180.496" cy="106.22" rx="0.523" ry="0.857"/>
	<ellipse cx="177.021" cy="106.22" rx="0.524" ry="0.857"/>
	<ellipse cx="173.547" cy="106.22" rx="0.524" ry="0.857"/>
	<ellipse cx="170.071" cy="106.22" rx="0.524" ry="0.857"/>
	<ellipse cx="166.597" cy="106.22" rx="0.523" ry="0.857"/>
	<ellipse cx="163.122" cy="106.22" rx="0.524" ry="0.857"/>
	<ellipse cx="159.647" cy="106.22" rx="0.524" ry="0.857"/>
	<ellipse cx="156.173" cy="106.22" rx="0.526" ry="0.857"/>
	<ellipse cx="152.697" cy="106.22" rx="0.523" ry="0.857"/>
	<ellipse cx="149.223" cy="106.22" rx="0.523" ry="0.857"/>
	<ellipse cx="145.748" cy="106.22" rx="0.524" ry="0.857"/>
	<ellipse cx="142.271" cy="106.22" rx="0.522" ry="0.857"/>
	<ellipse cx="138.797" cy="106.22" rx="0.522" ry="0.857"/>
	<ellipse cx="135.322" cy="106.22" rx="0.524" ry="0.857"/>
	<ellipse cx="131.85" cy="106.22" rx="0.524" ry="0.857"/>
	<ellipse cx="128.374" cy="106.22" rx="0.525" ry="0.857"/>
	<ellipse cx="124.897" cy="106.22" rx="0.523" ry="0.857"/>
	<ellipse cx="121.425" cy="106.22" rx="0.525" ry="0.857"/>
	<ellipse cx="117.949" cy="106.22" rx="0.523" ry="0.857"/>
	<ellipse cx="114.473" cy="106.22" rx="0.522" ry="0.857"/>
	<ellipse cx="110.998" cy="106.22" rx="0.523" ry="0.857"/>
	<ellipse cx="107.523" cy="106.22" rx="0.523" ry="0.857"/>
	<ellipse cx="104.05" cy="106.22" rx="0.524" ry="0.857"/>
	<ellipse cx="100.574" cy="106.22" rx="0.524" ry="0.857"/>
	<ellipse cx="97.1" cy="106.22" rx="0.523" ry="0.857"/>
	<ellipse cx="93.625" cy="106.22" rx="0.524" ry="0.857"/>
	<ellipse cx="90.149" cy="106.22" rx="0.523" ry="0.857"/>
	<ellipse cx="86.675" cy="106.22" rx="0.523" ry="0.857"/>
	<ellipse cx="83.2" cy="106.22" rx="0.524" ry="0.857"/>
	<ellipse cx="79.724" cy="106.22" rx="0.523" ry="0.857"/>
	<ellipse cx="76.25" cy="106.22" rx="0.523" ry="0.857"/>
	<ellipse cx="72.775" cy="106.22" rx="0.524" ry="0.857"/>
	<ellipse cx="69.301" cy="106.22" rx="0.524" ry="0.857"/>
	<ellipse cx="65.826" cy="106.22" rx="0.524" ry="0.857"/>
	<ellipse cx="62.35" cy="106.22" rx="0.523" ry="0.857"/>
	<polygon points="213.633,115.448 209.062,109.202 211.349,115.448 	"/>
</g>
</svg>
